<svg xmlns="http://www.w3.org/2000/svg" width="100.334" height="129.001" viewBox="0 0 100.334 129.001"><g transform="translate(-42.667)"><g transform="translate(42.667)"><g transform="translate(0)"><path d="M64,171.334a14.376,14.376,0,0,0,14.334,14.334h57.334A14.376,14.376,0,0,0,150,171.334v-86H64Zm17.666-51.027,10.141-10.141L107,125.359l15.194-15.194,10.141,10.141L117.141,135.5l15.194,15.194-10.141,10.141L107,145.641,91.807,160.835,81.666,150.694,96.859,135.5Z" transform="translate(-56.833 -56.666)" fill="#cc6464"/><path d="M117.918,7.167,110.751,0H74.917L67.75,7.167H42.667V21.5H143V7.167Z" transform="translate(-42.667)" fill="#cc6464"/></g></g></g></svg>